<svg width="15" height="16" viewBox="0 0 15 16" fill="none" xmlns="http://www.w3.org/2000/svg">
<path d="M12.8437 2.92676H2.12943C1.20501 2.92707 0.455741 3.67644 0.455322 4.60086V10.8519C0.455741 11.7763 1.20501 12.5258 2.12943 12.526H12.8437C13.7681 12.5258 14.5174 11.7763 14.5178 10.8519V4.60086C14.5174 3.67644 13.7681 2.92707 12.8437 2.92676ZM2.12943 3.5964H12.8437C13.326 3.59766 13.7398 3.93991 13.8314 4.41326L7.48657 7.94908L1.14171 4.41326C1.23336 3.93991 1.64718 3.59766 2.12943 3.5964ZM12.8437 11.8531H2.12943C1.5754 11.8514 1.12653 11.4027 1.12497 10.8486V5.17006L7.32251 8.62531C7.37273 8.65294 7.42913 8.668 7.48657 8.66894C7.54422 8.66957 7.60083 8.65451 7.65063 8.62531L13.8482 5.17006V10.8486C13.8478 11.4032 13.3983 11.8526 12.8437 11.8531Z" fill="#713E8B"/>
</svg>
