<svg width="40" height="40" viewBox="0 0 40 40" fill="none" xmlns="http://www.w3.org/2000/svg">
<path d="M5.85938 35.2344H34.1406C37.3715 35.2344 40 32.6059 40 29.375V10.625C40 7.3941 37.3715 4.76562 34.1406 4.76562H5.85938C2.62848 4.76562 0 7.3941 0 10.625V29.375C0 32.6059 2.62848 35.2344 5.85938 35.2344ZM2.34375 10.625C2.34375 8.68652 3.9209 7.10938 5.85938 7.10938H34.1406C36.0791 7.10938 37.6562 8.68652 37.6562 10.625V29.375C37.6562 31.3135 36.0791 32.8906 34.1406 32.8906H5.85938C3.9209 32.8906 2.34375 31.3135 2.34375 29.375V10.625Z" fill="url(#paint0_linear_279_13765)"/>
<path d="M14.1406 12.1494V28.079L28.2422 19.9836L14.1406 12.1494ZM16.4844 16.1326L23.4766 20.0172L16.4844 24.0311V16.1326Z" fill="url(#paint1_linear_279_13765)"/>
<defs>
<linearGradient id="paint0_linear_279_13765" x1="16.927" y1="25.6994" x2="31.8132" y2="-9.4285" gradientUnits="userSpaceOnUse">
<stop stop-color="#713E8B"/>
<stop offset="0.54" stop-color="#D4242F"/>
<stop offset="1" stop-color="#713E8B"/>
</linearGradient>
<linearGradient id="paint1_linear_279_13765" x1="20.108" y1="23.0939" x2="29.8679" y2="7.56401" gradientUnits="userSpaceOnUse">
<stop stop-color="#713E8B"/>
<stop offset="0.54" stop-color="#D4242F"/>
<stop offset="1" stop-color="#713E8B"/>
</linearGradient>
</defs>
</svg>
